<?xml version="1.0" encoding="UTF-8"?>
<?xml-stylesheet href="https://cdnjs.cloudflare.com/ajax/libs/font-awesome/6.7.2/css/all.min.css" type="text/css"?>
<svg aria-roledescription="sequence" role="graphics-document document" style="overflow: hidden; max-width: 100%;" xmlns="http://www.w3.org/2000/svg" width="100%" id="graph-7" height="100%" xmlns:xlink="http://www.w3.org/1999/xlink" xmlns:ev="http://www.w3.org/2001/xml-events"><defs><symbol height="24" width="24" id="computer"><path d="M2 2v13h20v-13h-20zm18 11h-16v-9h16v9zm-10.228 6l.466-1h3.524l.467 1h-4.457zm14.228 3h-24l2-6h2.104l-1.33 4h18.45l-1.297-4h2.073l2 6zm-5-10h-14v-7h14v7z" transform="scale(.5)"></path></symbol></defs><defs><symbol clip-rule="evenodd" fill-rule="evenodd" id="database"><path d="M12.258.001l.256.004.255.005.253.008.251.01.249.012.247.015.246.016.242.019.241.02.239.023.236.024.233.027.231.028.229.031.225.032.223.034.22.036.217.038.214.04.211.041.208.043.205.045.201.046.198.048.194.05.191.051.187.053.183.054.18.056.175.057.172.059.168.06.163.061.16.063.155.064.15.066.074.033.073.033.071.034.07.034.069.035.068.035.067.035.066.035.064.036.064.036.062.036.06.036.06.037.058.037.058.037.055.038.055.038.053.038.052.038.051.039.05.039.048.039.047.039.045.04.044.04.043.04.041.04.04.041.039.041.037.041.036.041.034.041.033.042.032.042.03.042.029.042.027.042.026.043.024.043.023.043.021.043.02.043.018.044.017.043.015.044.013.044.012.044.011.045.009.044.007.045.006.045.004.045.002.045.001.045v17l-.001.045-.002.045-.004.045-.006.045-.007.045-.009.044-.011.045-.012.044-.013.044-.015.044-.017.043-.018.044-.02.043-.021.043-.023.043-.024.043-.026.043-.027.042-.029.042-.03.042-.032.042-.033.042-.034.041-.036.041-.037.041-.039.041-.04.041-.041.04-.043.04-.044.04-.045.04-.047.039-.048.039-.05.039-.051.039-.052.038-.053.038-.055.038-.055.038-.058.037-.058.037-.06.037-.06.036-.062.036-.064.036-.064.036-.066.035-.067.035-.068.035-.069.035-.07.034-.071.034-.073.033-.074.033-.15.066-.155.064-.16.063-.163.061-.168.06-.172.059-.175.057-.18.056-.183.054-.187.053-.191.051-.194.05-.198.048-.201.046-.205.045-.208.043-.211.041-.214.04-.217.038-.22.036-.223.034-.225.032-.229.031-.231.028-.233.027-.236.024-.239.023-.241.02-.242.019-.246.016-.247.015-.249.012-.251.01-.253.008-.255.005-.256.004-.258.001-.258-.001-.256-.004-.255-.005-.253-.008-.251-.01-.249-.012-.247-.015-.245-.016-.243-.019-.241-.02-.238-.023-.236-.024-.234-.027-.231-.028-.228-.031-.226-.032-.223-.034-.22-.036-.217-.038-.214-.04-.211-.041-.208-.043-.204-.045-.201-.046-.198-.048-.195-.05-.19-.051-.187-.053-.184-.054-.179-.056-.176-.057-.172-.059-.167-.06-.164-.061-.159-.063-.155-.064-.151-.066-.074-.033-.072-.033-.072-.034-.07-.034-.069-.035-.068-.035-.067-.035-.066-.035-.064-.036-.063-.036-.062-.036-.061-.036-.06-.037-.058-.037-.057-.037-.056-.038-.055-.038-.053-.038-.052-.038-.051-.039-.049-.039-.049-.039-.046-.039-.046-.04-.044-.04-.043-.04-.041-.04-.04-.041-.039-.041-.037-.041-.036-.041-.034-.041-.033-.042-.032-.042-.03-.042-.029-.042-.027-.042-.026-.043-.024-.043-.023-.043-.021-.043-.02-.043-.018-.044-.017-.043-.015-.044-.013-.044-.012-.044-.011-.045-.009-.044-.007-.045-.006-.045-.004-.045-.002-.045-.001-.045v-17l.001-.045.002-.045.004-.045.006-.045.007-.045.009-.044.011-.045.012-.044.013-.044.015-.044.017-.043.018-.044.02-.043.021-.043.023-.043.024-.043.026-.043.027-.042.029-.042.03-.042.032-.042.033-.042.034-.041.036-.041.037-.041.039-.041.04-.041.041-.04.043-.04.044-.04.046-.04.046-.039.049-.039.049-.039.051-.039.052-.038.053-.038.055-.038.056-.038.057-.037.058-.037.06-.037.061-.036.062-.036.063-.036.064-.036.066-.035.067-.035.068-.035.069-.035.07-.034.072-.034.072-.033.074-.033.151-.066.155-.064.159-.063.164-.061.167-.06.172-.059.176-.057.179-.056.184-.054.187-.053.19-.051.195-.05.198-.048.201-.046.204-.045.208-.043.211-.041.214-.04.217-.038.22-.036.223-.034.226-.032.228-.031.231-.028.234-.027.236-.024.238-.023.241-.02.243-.019.245-.016.247-.015.249-.012.251-.01.253-.008.255-.005.256-.004.258-.001.258.001zm-9.258 20.499v.01l.001.021.003.021.004.022.005.021.006.022.007.022.009.023.01.022.011.023.012.023.013.023.015.023.016.024.017.023.018.024.019.024.021.024.022.025.023.024.024.025.052.049.056.05.061.051.066.051.07.051.075.051.079.052.084.052.088.052.092.052.097.052.102.051.105.052.11.052.114.051.119.051.123.051.127.05.131.05.135.05.139.048.144.049.147.047.152.047.155.047.16.045.163.045.167.043.171.043.176.041.178.041.183.039.187.039.19.037.194.035.197.035.202.033.204.031.209.03.212.029.216.027.219.025.222.024.226.021.23.02.233.018.236.016.24.015.243.012.246.01.249.008.253.005.256.004.259.001.26-.001.257-.004.254-.005.25-.008.247-.011.244-.012.241-.014.237-.016.233-.018.231-.021.226-.021.224-.024.22-.026.216-.027.212-.028.21-.031.205-.031.202-.034.198-.034.194-.036.191-.037.187-.039.183-.04.179-.04.175-.042.172-.043.168-.044.163-.045.16-.046.155-.046.152-.047.148-.048.143-.049.139-.049.136-.05.131-.05.126-.05.123-.051.118-.052.114-.051.11-.052.106-.052.101-.052.096-.052.092-.052.088-.053.083-.051.079-.052.074-.052.07-.051.065-.051.06-.051.056-.05.051-.05.023-.024.023-.025.021-.024.02-.024.019-.024.018-.024.017-.024.015-.023.014-.024.013-.023.012-.023.01-.023.01-.022.008-.022.006-.022.006-.022.004-.022.004-.021.001-.021.001-.021v-4.127l-.077.055-.08.053-.083.054-.085.053-.087.052-.09.052-.093.051-.095.05-.097.05-.1.049-.102.049-.105.048-.106.047-.109.047-.111.046-.114.045-.115.045-.118.044-.12.043-.122.042-.124.042-.126.041-.128.04-.13.04-.132.038-.134.038-.135.037-.138.037-.139.035-.142.035-.143.034-.144.033-.147.032-.148.031-.15.03-.151.03-.153.029-.154.027-.156.027-.158.026-.159.025-.161.024-.162.023-.163.022-.165.021-.166.02-.167.019-.169.018-.169.017-.171.016-.173.015-.173.014-.175.013-.175.012-.177.011-.178.01-.179.008-.179.008-.181.006-.182.005-.182.004-.184.003-.184.002h-.37l-.184-.002-.184-.003-.182-.004-.182-.005-.181-.006-.179-.008-.179-.008-.178-.01-.176-.011-.176-.012-.175-.013-.173-.014-.172-.015-.171-.016-.17-.017-.169-.018-.167-.019-.166-.02-.165-.021-.163-.022-.162-.023-.161-.024-.159-.025-.157-.026-.156-.027-.155-.027-.153-.029-.151-.03-.15-.03-.148-.031-.146-.032-.145-.033-.143-.034-.141-.035-.14-.035-.137-.037-.136-.037-.134-.038-.132-.038-.13-.04-.128-.04-.126-.041-.124-.042-.122-.042-.12-.044-.117-.043-.116-.045-.113-.045-.112-.046-.109-.047-.106-.047-.105-.048-.102-.049-.1-.049-.097-.05-.095-.05-.093-.052-.09-.051-.087-.052-.085-.053-.083-.054-.08-.054-.077-.054v4.127zm0-5.654v.011l.001.021.003.021.004.021.005.022.006.022.007.022.009.022.01.022.011.023.012.023.013.023.015.024.016.023.017.024.018.024.019.024.021.024.022.024.023.025.024.024.052.05.056.05.061.05.066.051.07.051.075.052.079.051.084.052.088.052.092.052.097.052.102.052.105.052.11.051.114.051.119.052.123.05.127.051.131.05.135.049.139.049.144.048.147.048.152.047.155.046.16.045.163.045.167.044.171.042.176.042.178.04.183.04.187.038.19.037.194.036.197.034.202.033.204.032.209.03.212.028.216.027.219.025.222.024.226.022.23.02.233.018.236.016.24.014.243.012.246.01.249.008.253.006.256.003.259.001.26-.001.257-.003.254-.006.25-.008.247-.01.244-.012.241-.015.237-.016.233-.018.231-.02.226-.022.224-.024.22-.025.216-.027.212-.029.21-.03.205-.032.202-.033.198-.035.194-.036.191-.037.187-.039.183-.039.179-.041.175-.042.172-.043.168-.044.163-.045.16-.045.155-.047.152-.047.148-.048.143-.048.139-.05.136-.049.131-.05.126-.051.123-.051.118-.051.114-.052.11-.052.106-.052.101-.052.096-.052.092-.052.088-.052.083-.052.079-.052.074-.051.07-.052.065-.051.06-.05.056-.051.051-.049.023-.025.023-.024.021-.025.02-.024.019-.024.018-.024.017-.024.015-.023.014-.023.013-.024.012-.022.01-.023.01-.023.008-.022.006-.022.006-.022.004-.021.004-.022.001-.021.001-.021v-4.139l-.077.054-.08.054-.083.054-.085.052-.087.053-.09.051-.093.051-.095.051-.097.05-.1.049-.102.049-.105.048-.106.047-.109.047-.111.046-.114.045-.115.044-.118.044-.12.044-.122.042-.124.042-.126.041-.128.04-.13.039-.132.039-.134.038-.135.037-.138.036-.139.036-.142.035-.143.033-.144.033-.147.033-.148.031-.15.03-.151.03-.153.028-.154.028-.156.027-.158.026-.159.025-.161.024-.162.023-.163.022-.165.021-.166.02-.167.019-.169.018-.169.017-.171.016-.173.015-.173.014-.175.013-.175.012-.177.011-.178.009-.179.009-.179.007-.181.007-.182.005-.182.004-.184.003-.184.002h-.37l-.184-.002-.184-.003-.182-.004-.182-.005-.181-.007-.179-.007-.179-.009-.178-.009-.176-.011-.176-.012-.175-.013-.173-.014-.172-.015-.171-.016-.17-.017-.169-.018-.167-.019-.166-.02-.165-.021-.163-.022-.162-.023-.161-.024-.159-.025-.157-.026-.156-.027-.155-.028-.153-.028-.151-.03-.15-.03-.148-.031-.146-.033-.145-.033-.143-.033-.141-.035-.14-.036-.137-.036-.136-.037-.134-.038-.132-.039-.13-.039-.128-.04-.126-.041-.124-.042-.122-.043-.12-.043-.117-.044-.116-.044-.113-.046-.112-.046-.109-.046-.106-.047-.105-.048-.102-.049-.1-.049-.097-.05-.095-.051-.093-.051-.09-.051-.087-.053-.085-.052-.083-.054-.08-.054-.077-.054v4.139zm0-5.666v.011l.001.02.003.022.004.021.005.022.006.021.007.022.009.023.01.022.011.023.012.023.013.023.015.023.016.024.017.024.018.023.019.024.021.025.022.024.023.024.024.025.052.05.056.05.061.05.066.051.07.051.075.052.079.051.084.052.088.052.092.052.097.052.102.052.105.051.11.052.114.051.119.051.123.051.127.05.131.05.135.05.139.049.144.048.147.048.152.047.155.046.16.045.163.045.167.043.171.043.176.042.178.04.183.04.187.038.19.037.194.036.197.034.202.033.204.032.209.03.212.028.216.027.219.025.222.024.226.021.23.02.233.018.236.017.24.014.243.012.246.01.249.008.253.006.256.003.259.001.26-.001.257-.003.254-.006.25-.008.247-.01.244-.013.241-.014.237-.016.233-.018.231-.02.226-.022.224-.024.22-.025.216-.027.212-.029.21-.03.205-.032.202-.033.198-.035.194-.036.191-.037.187-.039.183-.039.179-.041.175-.042.172-.043.168-.044.163-.045.16-.045.155-.047.152-.047.148-.048.143-.049.139-.049.136-.049.131-.051.126-.05.123-.051.118-.052.114-.051.11-.052.106-.052.101-.052.096-.052.092-.052.088-.052.083-.052.079-.052.074-.052.07-.051.065-.051.06-.051.056-.05.051-.049.023-.025.023-.025.021-.024.02-.024.019-.024.018-.024.017-.024.015-.023.014-.024.013-.023.012-.023.01-.022.01-.023.008-.022.006-.022.006-.022.004-.022.004-.021.001-.021.001-.021v-4.153l-.077.054-.08.054-.083.053-.085.053-.087.053-.09.051-.093.051-.095.051-.097.05-.1.049-.102.048-.105.048-.106.048-.109.046-.111.046-.114.046-.115.044-.118.044-.12.043-.122.043-.124.042-.126.041-.128.04-.13.039-.132.039-.134.038-.135.037-.138.036-.139.036-.142.034-.143.034-.144.033-.147.032-.148.032-.15.03-.151.03-.153.028-.154.028-.156.027-.158.026-.159.024-.161.024-.162.023-.163.023-.165.021-.166.02-.167.019-.169.018-.169.017-.171.016-.173.015-.173.014-.175.013-.175.012-.177.01-.178.01-.179.009-.179.007-.181.006-.182.006-.182.004-.184.003-.184.001-.185.001-.185-.001-.184-.001-.184-.003-.182-.004-.182-.006-.181-.006-.179-.007-.179-.009-.178-.01-.176-.01-.176-.012-.175-.013-.173-.014-.172-.015-.171-.016-.17-.017-.169-.018-.167-.019-.166-.02-.165-.021-.163-.023-.162-.023-.161-.024-.159-.024-.157-.026-.156-.027-.155-.028-.153-.028-.151-.03-.15-.03-.148-.032-.146-.032-.145-.033-.143-.034-.141-.034-.14-.036-.137-.036-.136-.037-.134-.038-.132-.039-.13-.039-.128-.041-.126-.041-.124-.041-.122-.043-.12-.043-.117-.044-.116-.044-.113-.046-.112-.046-.109-.046-.106-.048-.105-.048-.102-.048-.1-.05-.097-.049-.095-.051-.093-.051-.09-.052-.087-.052-.085-.053-.083-.053-.08-.054-.077-.054v4.153zm8.74-8.179l-.257.004-.254.005-.25.008-.247.011-.244.012-.241.014-.237.016-.233.018-.231.021-.226.022-.224.023-.22.026-.216.027-.212.028-.21.031-.205.032-.202.033-.198.034-.194.036-.191.038-.187.038-.183.04-.179.041-.175.042-.172.043-.168.043-.163.045-.16.046-.155.046-.152.048-.148.048-.143.048-.139.049-.136.05-.131.05-.126.051-.123.051-.118.051-.114.052-.11.052-.106.052-.101.052-.096.052-.092.052-.088.052-.083.052-.079.052-.074.051-.07.052-.065.051-.06.05-.056.05-.051.05-.023.025-.023.024-.021.024-.02.025-.019.024-.018.024-.017.023-.015.024-.014.023-.013.023-.012.023-.01.023-.01.022-.008.022-.006.023-.006.021-.004.022-.004.021-.001.021-.001.021.001.021.001.021.004.021.004.022.006.021.006.023.008.022.01.022.01.023.012.023.013.023.014.023.015.024.017.023.018.024.019.024.02.025.021.024.023.024.023.025.051.05.056.05.06.05.065.051.07.052.074.051.079.052.083.052.088.052.092.052.096.052.101.052.106.052.11.052.114.052.118.051.123.051.126.051.131.05.136.05.139.049.143.048.148.048.152.048.155.046.16.046.163.045.168.043.172.043.175.042.179.041.183.04.187.038.191.038.194.036.198.034.202.033.205.032.21.031.212.028.216.027.22.026.224.023.226.022.231.021.233.018.237.016.241.014.244.012.247.011.25.008.254.005.257.004.26.001.26-.001.257-.004.254-.005.25-.008.247-.011.244-.012.241-.014.237-.016.233-.018.231-.021.226-.022.224-.023.22-.026.216-.027.212-.028.21-.031.205-.032.202-.033.198-.034.194-.036.191-.038.187-.038.183-.04.179-.041.175-.042.172-.043.168-.043.163-.045.16-.046.155-.046.152-.048.148-.048.143-.048.139-.049.136-.05.131-.05.126-.051.123-.051.118-.051.114-.052.11-.052.106-.052.101-.052.096-.052.092-.052.088-.052.083-.052.079-.052.074-.051.07-.052.065-.051.06-.05.056-.05.051-.05.023-.025.023-.024.021-.024.02-.025.019-.024.018-.024.017-.023.015-.024.014-.023.013-.023.012-.023.01-.023.01-.022.008-.022.006-.023.006-.021.004-.022.004-.021.001-.021.001-.021-.001-.021-.001-.021-.004-.021-.004-.022-.006-.021-.006-.023-.008-.022-.01-.022-.01-.023-.012-.023-.013-.023-.014-.023-.015-.024-.017-.023-.018-.024-.019-.024-.02-.025-.021-.024-.023-.024-.023-.025-.051-.05-.056-.05-.06-.05-.065-.051-.07-.052-.074-.051-.079-.052-.083-.052-.088-.052-.092-.052-.096-.052-.101-.052-.106-.052-.11-.052-.114-.052-.118-.051-.123-.051-.126-.051-.131-.05-.136-.05-.139-.049-.143-.048-.148-.048-.152-.048-.155-.046-.16-.046-.163-.045-.168-.043-.172-.043-.175-.042-.179-.041-.183-.04-.187-.038-.191-.038-.194-.036-.198-.034-.202-.033-.205-.032-.21-.031-.212-.028-.216-.027-.22-.026-.224-.023-.226-.022-.231-.021-.233-.018-.237-.016-.241-.014-.244-.012-.247-.011-.25-.008-.254-.005-.257-.004-.26-.001-.26.001z" transform="scale(.5)"></path></symbol></defs><defs><symbol height="24" width="24" id="clock"><path d="M12 2c5.514 0 10 4.486 10 10s-4.486 10-10 10-10-4.486-10-10 4.486-10 10-10zm0-2c-6.627 0-12 5.373-12 12s5.373 12 12 12 12-5.373 12-12-5.373-12-12-12zm5.848 12.459c.202.038.202.333.001.372-1.907.361-6.045 1.111-6.547 1.111-.719 0-1.301-.582-1.301-1.301 0-.512.77-5.447 1.125-7.445.034-.192.312-.181.343.014l.985 6.238 5.394 1.011z" transform="scale(.5)"></path></symbol></defs><defs><marker orient="auto-start-reverse" markerHeight="12" markerWidth="12" markerUnits="userSpaceOnUse" refY="5" refX="7.9" id="arrowhead"><path d="M -1 0 L 10 5 L 0 10 z"></path></marker></defs><defs><marker refY="4.5" refX="4" orient="auto" markerHeight="8" markerWidth="15" id="crosshead"><path style="stroke-dasharray: 0, 0;" d="M 1,2 L 6,7 M 6,2 L 1,7" stroke-width="1pt" stroke="#000000" fill="none"></path></marker></defs><defs><marker orient="auto" markerHeight="28" markerWidth="20" refY="7" refX="15.5" id="filled-head"><path d="M 18,7 L9,13 L14,7 L9,1 Z"></path></marker></defs><defs><marker orient="auto" markerHeight="40" markerWidth="60" refY="15" refX="15" id="sequencenumber"><circle r="6" cy="15" cx="15"></circle></marker></defs><g id="viewport-20250406105414479" class="svg-pan-zoom_viewport" transform="matrix(0.20769649333711981,0,0,0.20769649333711981,296.75856335051435,43.3976177955795)" style="transform: matrix(0.207696, 0, 0, 0.207696, 296.759, 43.3976);"><rect class="rect" height="268" width="1024.5" fill="rgb(245, 245, 245)" y="2070" x="40"></rect><rect class="rect" height="221" width="1024.5" fill="rgb(255, 240, 255)" y="1839" x="40"></rect><rect class="rect" height="261" width="1024.5" fill="rgb(240, 255, 255)" y="1568" x="40"></rect><rect class="rect" height="165" width="1024.5" fill="rgb(255, 255, 240)" y="1393" x="40"></rect><rect class="rect" height="862" width="1030.5" fill="rgb(255, 240, 240)" y="521" x="34"></rect><rect class="rect" height="213" width="1024.5" fill="rgb(240, 255, 240)" y="298" x="40"></rect><rect class="rect" height="213" width="1024.5" fill="rgb(240, 240, 255)" y="75" x="40"></rect><g><rect class="actor actor-bottom" ry="3" rx="3" name="Storage" height="65" width="150" stroke="#666" fill="#eaeaea" y="2358" x="954.5"></rect><text style="text-anchor: middle; font-size: 16px; font-weight: 400;" class="actor actor-box" alignment-baseline="central" dominant-baseline="central" y="2390.5" x="1029.5"><tspan dy="0" x="1029.5">Image Storage</tspan></text></g><g><rect class="actor actor-bottom" ry="3" rx="3" name="Engine" height="65" width="150" stroke="#666" fill="#eaeaea" y="2358" x="715.5"></rect><text style="text-anchor: middle; font-size: 16px; font-weight: 400;" class="actor actor-box" alignment-baseline="central" dominant-baseline="central" y="2390.5" x="790.5"><tspan dy="0" x="790.5">Execution Engine</tspan></text></g><g><rect class="actor actor-bottom" ry="3" rx="3" name="HTTP" height="65" width="150" stroke="#666" fill="#eaeaea" y="2358" x="515.5"></rect><text style="text-anchor: middle; font-size: 16px; font-weight: 400;" class="actor actor-box" alignment-baseline="central" dominant-baseline="central" y="2390.5" x="590.5"><tspan dy="0" x="590.5">HTTP Server</tspan></text></g><g><rect class="actor actor-bottom" ry="3" rx="3" name="WS" height="65" width="153" stroke="#666" fill="#eaeaea" y="2358" x="312.5"></rect><text style="text-anchor: middle; font-size: 16px; font-weight: 400;" class="actor actor-box" alignment-baseline="central" dominant-baseline="central" y="2390.5" x="389"><tspan dy="0" x="389">WebSocket Server</tspan></text></g><g></g><g><line name="Storage" stroke="#999" stroke-width="0.5px" class="actor-line 200" y2="2358" x2="1029.5" y1="65" x1="1029.5" id="actor34"></line><g id="root-34"><rect class="actor actor-top" ry="3" rx="3" name="Storage" height="65" width="150" stroke="#666" fill="#eaeaea" y="0" x="954.5"></rect><text style="text-anchor: middle; font-size: 16px; font-weight: 400;" class="actor actor-box" alignment-baseline="central" dominant-baseline="central" y="32.5" x="1029.5"><tspan dy="0" x="1029.5">Image Storage</tspan></text></g></g><g><line name="Engine" stroke="#999" stroke-width="0.5px" class="actor-line 200" y2="2358" x2="790.5" y1="65" x1="790.5" id="actor33"></line><g id="root-33"><rect class="actor actor-top" ry="3" rx="3" name="Engine" height="65" width="150" stroke="#666" fill="#eaeaea" y="0" x="715.5"></rect><text style="text-anchor: middle; font-size: 16px; font-weight: 400;" class="actor actor-box" alignment-baseline="central" dominant-baseline="central" y="32.5" x="790.5"><tspan dy="0" x="790.5">Execution Engine</tspan></text></g></g><g><line name="HTTP" stroke="#999" stroke-width="0.5px" class="actor-line 200" y2="2358" x2="590.5" y1="65" x1="590.5" id="actor32"></line><g id="root-32"><rect class="actor actor-top" ry="3" rx="3" name="HTTP" height="65" width="150" stroke="#666" fill="#eaeaea" y="0" x="515.5"></rect><text style="text-anchor: middle; font-size: 16px; font-weight: 400;" class="actor actor-box" alignment-baseline="central" dominant-baseline="central" y="32.5" x="590.5"><tspan dy="0" x="590.5">HTTP Server</tspan></text></g></g><g><line name="WS" stroke="#999" stroke-width="0.5px" class="actor-line 200" y2="2358" x2="389" y1="65" x1="389" id="actor31"></line><g id="root-31"><rect class="actor actor-top" ry="3" rx="3" name="WS" height="65" width="153" stroke="#666" fill="#eaeaea" y="0" x="312.5"></rect><text style="text-anchor: middle; font-size: 16px; font-weight: 400;" class="actor actor-box" alignment-baseline="central" dominant-baseline="central" y="32.5" x="389"><tspan dy="0" x="389">WebSocket Server</tspan></text></g></g><g><line name="Client" stroke="#999" stroke-width="0.5px" class="actor-line 200" y2="2358" x2="75" y1="80" x1="75" id="actor30"></line></g><style>#graph-7{font-family:"trebuchet ms",verdana,arial,sans-serif;font-size:16px;fill:#333;}@keyframes edge-animation-frame{from{stroke-dashoffset:0;}}@keyframes dash{to{stroke-dashoffset:0;}}#graph-7 .edge-animation-slow{stroke-dasharray:9,5!important;stroke-dashoffset:900;animation:dash 50s linear infinite;stroke-linecap:round;}#graph-7 .edge-animation-fast{stroke-dasharray:9,5!important;stroke-dashoffset:900;animation:dash 20s linear infinite;stroke-linecap:round;}#graph-7 .error-icon{fill:#552222;}#graph-7 .error-text{fill:#552222;stroke:#552222;}#graph-7 .edge-thickness-normal{stroke-width:1px;}#graph-7 .edge-thickness-thick{stroke-width:3.5px;}#graph-7 .edge-pattern-solid{stroke-dasharray:0;}#graph-7 .edge-thickness-invisible{stroke-width:0;fill:none;}#graph-7 .edge-pattern-dashed{stroke-dasharray:3;}#graph-7 .edge-pattern-dotted{stroke-dasharray:2;}#graph-7 .marker{fill:#333333;stroke:#333333;}#graph-7 .marker.cross{stroke:#333333;}#graph-7 svg{font-family:"trebuchet ms",verdana,arial,sans-serif;font-size:16px;}#graph-7 p{margin:0;}#graph-7 .actor{stroke:hsl(259.6261682243, 59.7765363128%, 87.9019607843%);fill:#ECECFF;}#graph-7 text.actor&gt;tspan{fill:black;stroke:none;}#graph-7 .actor-line{stroke:hsl(259.6261682243, 59.7765363128%, 87.9019607843%);}#graph-7 .messageLine0{stroke-width:1.5;stroke-dasharray:none;stroke:#333;}#graph-7 .messageLine1{stroke-width:1.5;stroke-dasharray:2,2;stroke:#333;}#graph-7 #arrowhead path{fill:#333;stroke:#333;}#graph-7 .sequenceNumber{fill:white;}#graph-7 #sequencenumber{fill:#333;}#graph-7 #crosshead path{fill:#333;stroke:#333;}#graph-7 .messageText{fill:#333;stroke:none;}#graph-7 .labelBox{stroke:hsl(259.6261682243, 59.7765363128%, 87.9019607843%);fill:#ECECFF;}#graph-7 .labelText,#graph-7 .labelText&gt;tspan{fill:black;stroke:none;}#graph-7 .loopText,#graph-7 .loopText&gt;tspan{fill:black;stroke:none;}#graph-7 .loopLine{stroke-width:2px;stroke-dasharray:2,2;stroke:hsl(259.6261682243, 59.7765363128%, 87.9019607843%);fill:hsl(259.6261682243, 59.7765363128%, 87.9019607843%);}#graph-7 .note{stroke:#aaaa33;fill:#fff5ad;}#graph-7 .noteText,#graph-7 .noteText&gt;tspan{fill:black;stroke:none;}#graph-7 .activation0{fill:#f4f4f4;stroke:#666;}#graph-7 .activation1{fill:#f4f4f4;stroke:#666;}#graph-7 .activation2{fill:#f4f4f4;stroke:#666;}#graph-7 .actorPopupMenu{position:absolute;}#graph-7 .actorPopupMenuPanel{position:absolute;fill:#ECECFF;box-shadow:0px 8px 16px 0px rgba(0,0,0,0.2);filter:drop-shadow(3px 5px 2px rgb(0 0 0 / 0.4));}#graph-7 .actor-man line{stroke:hsl(259.6261682243, 59.7765363128%, 87.9019607843%);fill:#ECECFF;}#graph-7 .actor-man circle,#graph-7 line{stroke:hsl(259.6261682243, 59.7765363128%, 87.9019607843%);fill:#ECECFF;stroke-width:2px;}#graph-7 :root{--mermaid-font-family:"trebuchet ms",verdana,arial,sans-serif;}</style><g></g><g><rect class="note" height="39" width="1004.5" stroke="#666" fill="#EDF2AE" y="95" x="50"></rect><text style="font-size: 16px; font-weight: 400;" dy="1em" class="noteText" alignment-baseline="middle" dominant-baseline="middle" text-anchor="middle" y="100" x="552"><tspan x="552">Connection &amp; Initialization</tspan></text></g><g><rect class="note" height="39" width="1004.5" stroke="#666" fill="#EDF2AE" y="318" x="50"></rect><text style="font-size: 16px; font-weight: 400;" dy="1em" class="noteText" alignment-baseline="middle" dominant-baseline="middle" text-anchor="middle" y="323" x="552"><tspan x="552">Workflow Submission</tspan></text></g><g><rect class="note" height="39" width="1004.5" stroke="#666" fill="#EDF2AE" y="541" x="50"></rect><text style="font-size: 16px; font-weight: 400;" dy="1em" class="noteText" alignment-baseline="middle" dominant-baseline="middle" text-anchor="middle" y="546" x="552"><tspan x="552">Execution Process</tspan></text></g><g><rect class="note" height="39" width="219" stroke="#666" fill="#EDF2AE" y="638" x="100"></rect><text style="font-size: 16px; font-weight: 400;" dy="1em" class="noteText" alignment-baseline="middle" dominant-baseline="middle" text-anchor="middle" y="643" x="210"><tspan x="210">Workflow begins processing</tspan></text></g><g><rect class="note" height="39" width="248" stroke="#666" fill="#EDF2AE" y="780" x="100"></rect><text style="font-size: 16px; font-weight: 400;" dy="1em" class="noteText" alignment-baseline="middle" dominant-baseline="middle" text-anchor="middle" y="785" x="224"><tspan x="224">Some nodes use cached results</tspan></text></g><g><line class="loopLine" y2="687" x2="400" y1="687" x1="64"></line><line class="loopLine" y2="829" x2="400" y1="687" x1="400"></line><line class="loopLine" y2="829" x2="400" y1="829" x1="64"></line><line class="loopLine" y2="829" x2="64" y1="687" x1="64"></line><polygon class="labelBox" points="64,687 114,687 114,700 105.6,707 64,707"></polygon><text style="font-size: 16px; font-weight: 400;" class="labelText" alignment-baseline="middle" dominant-baseline="middle" text-anchor="middle" y="700" x="89">alt</text><text style="font-size: 16px; font-weight: 400;" class="loopText" text-anchor="middle" y="705" x="257"><tspan x="257">[Cached Results Available]</tspan></text></g><g><line class="loopLine" y2="1055" x2="876.5" y1="1055" x1="64"></line><line class="loopLine" y2="1256" x2="876.5" y1="1055" x1="876.5"></line><line class="loopLine" y2="1256" x2="876.5" y1="1256" x1="64"></line><line class="loopLine" y2="1256" x2="64" y1="1055" x1="64"></line><polygon class="labelBox" points="64,1055 114,1055 114,1068 105.6,1075 64,1075"></polygon><text style="font-size: 16px; font-weight: 400;" class="labelText" alignment-baseline="middle" dominant-baseline="middle" text-anchor="middle" y="1068" x="89">loop</text><text style="font-size: 16px; font-weight: 400;" class="loopText" text-anchor="middle" y="1073" x="495.25"><tspan x="495.25">[For each step]</tspan></text></g><g><line class="loopLine" y2="1010" x2="886.5" y1="1010" x1="54"></line><line class="loopLine" y2="1266" x2="886.5" y1="1010" x1="886.5"></line><line class="loopLine" y2="1266" x2="886.5" y1="1266" x1="54"></line><line class="loopLine" y2="1266" x2="54" y1="1010" x1="54"></line><polygon class="labelBox" points="54,1010 104,1010 104,1023 95.6,1030 54,1030"></polygon><text style="font-size: 16px; font-weight: 400;" class="labelText" alignment-baseline="middle" dominant-baseline="middle" text-anchor="middle" y="1023" x="79">opt</text><text style="font-size: 16px; font-weight: 400;" class="loopText" text-anchor="middle" y="1028" x="495.25"><tspan x="495.25">[If KSampler or generation node]</tspan></text></g><g><rect class="note" height="39" width="175" stroke="#666" fill="#EDF2AE" y="1324" x="100"></rect><text style="font-size: 16px; font-weight: 400;" dy="1em" class="noteText" alignment-baseline="middle" dominant-baseline="middle" text-anchor="middle" y="1329" x="188"><tspan x="188">Node output available</tspan></text></g><g><line class="loopLine" y2="839" x2="896.5" y1="839" x1="44"></line><line class="loopLine" y2="1373" x2="896.5" y1="839" x1="896.5"></line><line class="loopLine" y2="1373" x2="896.5" y1="1373" x1="44"></line><line class="loopLine" y2="1373" x2="44" y1="839" x1="44"></line><polygon class="labelBox" points="44,839 94,839 94,852 85.6,859 44,859"></polygon><text style="font-size: 16px; font-weight: 400;" class="labelText" alignment-baseline="middle" dominant-baseline="middle" text-anchor="middle" y="852" x="69">loop</text><text style="font-size: 16px; font-weight: 400;" class="loopText" text-anchor="middle" y="857" x="495.25"><tspan x="495.25">[Node Execution]</tspan></text></g><g><rect class="note" height="39" width="1004.5" stroke="#666" fill="#EDF2AE" y="1413" x="50"></rect><text style="font-size: 16px; font-weight: 400;" dy="1em" class="noteText" alignment-baseline="middle" dominant-baseline="middle" text-anchor="middle" y="1418" x="552"><tspan x="552">Completion &amp; Output</tspan></text></g><g><rect class="note" height="39" width="1004.5" stroke="#666" fill="#EDF2AE" y="1588" x="50"></rect><text style="font-size: 16px; font-weight: 400;" dy="1em" class="noteText" alignment-baseline="middle" dominant-baseline="middle" text-anchor="middle" y="1593" x="552"><tspan x="552">Optional Image Retrieval</tspan></text></g><g><rect class="note" height="39" width="1004.5" stroke="#666" fill="#EDF2AE" y="1859" x="50"></rect><text style="font-size: 16px; font-weight: 400;" dy="1em" class="noteText" alignment-baseline="middle" dominant-baseline="middle" text-anchor="middle" y="1864" x="552"><tspan x="552">Optional Error Handling</tspan></text></g><g><rect class="note" height="39" width="172" stroke="#666" fill="#EDF2AE" y="2001" x="100"></rect><text style="font-size: 16px; font-weight: 400;" dy="1em" class="noteText" alignment-baseline="middle" dominant-baseline="middle" text-anchor="middle" y="2006" x="186"><tspan x="186">Contains error details</tspan></text></g><g><line class="loopLine" y2="1908" x2="400" y1="1908" x1="64"></line><line class="loopLine" y2="2050" x2="400" y1="1908" x1="400"></line><line class="loopLine" y2="2050" x2="400" y1="2050" x1="64"></line><line class="loopLine" y2="2050" x2="64" y1="1908" x1="64"></line><polygon class="labelBox" points="64,1908 114,1908 114,1921 105.6,1928 64,1928"></polygon><text style="font-size: 16px; font-weight: 400;" class="labelText" alignment-baseline="middle" dominant-baseline="middle" text-anchor="middle" y="1921" x="89">alt</text><text style="font-size: 16px; font-weight: 400;" class="loopText" text-anchor="middle" y="1926" x="257"><tspan x="257">[If Error Occurs]</tspan></text></g><g><rect class="note" height="39" width="1004.5" stroke="#666" fill="#EDF2AE" y="2090" x="50"></rect><text style="font-size: 16px; font-weight: 400;" dy="1em" class="noteText" alignment-baseline="middle" dominant-baseline="middle" text-anchor="middle" y="2095" x="552"><tspan x="552">Optional Cancellation</tspan></text></g><g><line class="loopLine" y2="2139" x2="801.5" y1="2139" x1="64"></line><line class="loopLine" y2="2328" x2="801.5" y1="2139" x1="801.5"></line><line class="loopLine" y2="2328" x2="801.5" y1="2328" x1="64"></line><line class="loopLine" y2="2328" x2="64" y1="2139" x1="64"></line><polygon class="labelBox" points="64,2139 114,2139 114,2152 105.6,2159 64,2159"></polygon><text style="font-size: 16px; font-weight: 400;" class="labelText" alignment-baseline="middle" dominant-baseline="middle" text-anchor="middle" y="2152" x="89">alt</text><text style="font-size: 16px; font-weight: 400;" class="loopText" text-anchor="middle" y="2157" x="457.75"><tspan x="457.75">[If User Cancels]</tspan></text></g><g name="Client" class="actor-man actor-top"><line y2="45" x2="75" y1="25" x1="75" id="actor-man-torso30"></line><line y2="33" x2="93" y1="33" x1="57" id="actor-man-arms30"></line><line y2="45" x2="75" y1="60" x1="57"></line><line y2="60" x2="91" y1="45" x1="75"></line><circle height="65" width="150" r="15" cy="10" cx="75"></circle><text style="text-anchor: middle; font-size: 16px; font-weight: 400;" class="actor actor-man" alignment-baseline="central" dominant-baseline="central" y="67.5" x="75"><tspan dy="0" x="75">Client</tspan></text></g><text style="font-size: 16px; font-weight: 400;" dy="1em" class="messageText" alignment-baseline="middle" dominant-baseline="middle" text-anchor="middle" y="149" x="231">Connect to ws://host:port/ws</text><line style="fill: none;" marker-end="url(#arrowhead)" stroke="none" stroke-width="2" class="messageLine0" y2="182" x2="385" y1="182" x1="76"></line><text style="font-size: 16px; font-weight: 400;" dy="1em" class="messageText" alignment-baseline="middle" dominant-baseline="middle" text-anchor="middle" y="197" x="234">Status message with session_id</text><line style="stroke-dasharray: 3, 3; fill: none;" marker-end="url(#arrowhead)" stroke="none" stroke-width="2" class="messageLine1" y2="230" x2="79" y1="230" x1="388"></line><text style="font-size: 16px; font-weight: 400;" dy="1em" class="messageText" alignment-baseline="middle" dominant-baseline="middle" text-anchor="middle" y="245" x="231">Set client_id (using session_id)</text><line style="fill: none;" marker-end="url(#arrowhead)" stroke="none" stroke-width="2" class="messageLine0" y2="278" x2="385" y1="278" x1="76"></line><text style="font-size: 16px; font-weight: 400;" dy="1em" class="messageText" alignment-baseline="middle" dominant-baseline="middle" text-anchor="middle" y="372" x="331">POST /prompt with workflow JSON</text><line style="fill: none;" marker-end="url(#arrowhead)" stroke="none" stroke-width="2" class="messageLine0" y2="405" x2="586.5" y1="405" x1="76"></line><text style="font-size: 16px; font-weight: 400;" dy="1em" class="messageText" alignment-baseline="middle" dominant-baseline="middle" text-anchor="middle" y="420" x="334">Response with prompt_id</text><line style="stroke-dasharray: 3, 3; fill: none;" marker-end="url(#arrowhead)" stroke="none" stroke-width="2" class="messageLine1" y2="453" x2="79" y1="453" x1="589.5"></line><text style="font-size: 16px; font-weight: 400;" dy="1em" class="messageText" alignment-baseline="middle" dominant-baseline="middle" text-anchor="middle" y="468" x="231">Subscribe to prompt updates</text><line style="fill: none;" marker-end="url(#arrowhead)" stroke="none" stroke-width="2" class="messageLine0" y2="501" x2="385" y1="501" x1="76"></line><text style="font-size: 16px; font-weight: 400;" dy="1em" class="messageText" alignment-baseline="middle" dominant-baseline="middle" text-anchor="middle" y="595" x="234">execution_start event</text><line style="stroke-dasharray: 3, 3; fill: none;" marker-end="url(#arrowhead)" stroke="none" stroke-width="2" class="messageLine1" y2="628" x2="79" y1="628" x1="388"></line><text style="font-size: 16px; font-weight: 400;" dy="1em" class="messageText" alignment-baseline="middle" dominant-baseline="middle" text-anchor="middle" y="737" x="234">execution_cached event</text><line style="stroke-dasharray: 3, 3; fill: none;" marker-end="url(#arrowhead)" stroke="none" stroke-width="2" class="messageLine1" y2="770" x2="79" y1="770" x1="388"></line><text style="font-size: 16px; font-weight: 400;" dy="1em" class="messageText" alignment-baseline="middle" dominant-baseline="middle" text-anchor="middle" y="889" x="234">executing event (node X)</text><line style="stroke-dasharray: 3, 3; fill: none;" marker-end="url(#arrowhead)" stroke="none" stroke-width="2" class="messageLine1" y2="922" x2="79" y1="922" x1="388"></line><text style="font-size: 16px; font-weight: 400;" dy="1em" class="messageText" alignment-baseline="middle" dominant-baseline="middle" text-anchor="middle" y="937" x="792">Process node</text><path style="fill: none;" marker-end="url(#arrowhead)" stroke="none" stroke-width="2" class="messageLine0" d="M 791.5,970 C 851.5,960 851.5,1000 791.5,990"></path><text style="font-size: 16px; font-weight: 400;" dy="1em" class="messageText" alignment-baseline="middle" dominant-baseline="middle" text-anchor="middle" y="1105" x="234">progress event (step N/total)</text><line style="stroke-dasharray: 3, 3; fill: none;" marker-end="url(#arrowhead)" stroke="none" stroke-width="2" class="messageLine1" y2="1138" x2="79" y1="1138" x1="388"></line><text style="font-size: 16px; font-weight: 400;" dy="1em" class="messageText" alignment-baseline="middle" dominant-baseline="middle" text-anchor="middle" y="1153" x="792">Generation step</text><path style="fill: none;" marker-end="url(#arrowhead)" stroke="none" stroke-width="2" class="messageLine0" d="M 791.5,1186 C 851.5,1176 851.5,1216 791.5,1206"></path><text style="font-size: 16px; font-weight: 400;" dy="1em" class="messageText" alignment-baseline="middle" dominant-baseline="middle" text-anchor="middle" y="1281" x="234">executed event (node X complete)</text><line style="stroke-dasharray: 3, 3; fill: none;" marker-end="url(#arrowhead)" stroke="none" stroke-width="2" class="messageLine1" y2="1314" x2="79" y1="1314" x1="388"></line><text style="font-size: 16px; font-weight: 400;" dy="1em" class="messageText" alignment-baseline="middle" dominant-baseline="middle" text-anchor="middle" y="1467" x="234">execution_complete event</text><line style="stroke-dasharray: 3, 3; fill: none;" marker-end="url(#arrowhead)" stroke="none" stroke-width="2" class="messageLine1" y2="1500" x2="79" y1="1500" x1="388"></line><text style="font-size: 16px; font-weight: 400;" dy="1em" class="messageText" alignment-baseline="middle" dominant-baseline="middle" text-anchor="middle" y="1515" x="909">Save generated images</text><line style="fill: none;" marker-end="url(#arrowhead)" stroke="none" stroke-width="2" class="messageLine0" y2="1548" x2="1025.5" y1="1548" x1="791.5"></line><text style="font-size: 16px; font-weight: 400;" dy="1em" class="messageText" alignment-baseline="middle" dominant-baseline="middle" text-anchor="middle" y="1642" x="331">GET /view?filename=output.png</text><line style="fill: none;" marker-end="url(#arrowhead)" stroke="none" stroke-width="2" class="messageLine0" y2="1675" x2="586.5" y1="1675" x1="76"></line><text style="font-size: 16px; font-weight: 400;" dy="1em" class="messageText" alignment-baseline="middle" dominant-baseline="middle" text-anchor="middle" y="1690" x="809">Retrieve image</text><line style="fill: none;" marker-end="url(#arrowhead)" stroke="none" stroke-width="2" class="messageLine0" y2="1723" x2="1025.5" y1="1723" x1="591.5"></line><text style="font-size: 16px; font-weight: 400;" dy="1em" class="messageText" alignment-baseline="middle" dominant-baseline="middle" text-anchor="middle" y="1738" x="812">Image data</text><line style="stroke-dasharray: 3, 3; fill: none;" marker-end="url(#arrowhead)" stroke="none" stroke-width="2" class="messageLine1" y2="1771" x2="594.5" y1="1771" x1="1028.5"></line><text style="font-size: 16px; font-weight: 400;" dy="1em" class="messageText" alignment-baseline="middle" dominant-baseline="middle" text-anchor="middle" y="1786" x="334">Binary image data</text><line style="stroke-dasharray: 3, 3; fill: none;" marker-end="url(#arrowhead)" stroke="none" stroke-width="2" class="messageLine1" y2="1819" x2="79" y1="1819" x1="589.5"></line><text style="font-size: 16px; font-weight: 400;" dy="1em" class="messageText" alignment-baseline="middle" dominant-baseline="middle" text-anchor="middle" y="1958" x="234">execution_error event</text><line style="stroke-dasharray: 3, 3; fill: none;" marker-end="url(#arrowhead)" stroke="none" stroke-width="2" class="messageLine1" y2="1991" x2="79" y1="1991" x1="388"></line><text style="font-size: 16px; font-weight: 400;" dy="1em" class="messageText" alignment-baseline="middle" dominant-baseline="middle" text-anchor="middle" y="2189" x="331">POST /interrupt</text><line style="fill: none;" marker-end="url(#arrowhead)" stroke="none" stroke-width="2" class="messageLine0" y2="2222" x2="586.5" y1="2222" x1="76"></line><text style="font-size: 16px; font-weight: 400;" dy="1em" class="messageText" alignment-baseline="middle" dominant-baseline="middle" text-anchor="middle" y="2237" x="689">Stop execution</text><line style="fill: none;" marker-end="url(#arrowhead)" stroke="none" stroke-width="2" class="messageLine0" y2="2270" x2="786.5" y1="2270" x1="591.5"></line><text style="font-size: 16px; font-weight: 400;" dy="1em" class="messageText" alignment-baseline="middle" dominant-baseline="middle" text-anchor="middle" y="2285" x="234">Status update (execution stopped)</text><line style="stroke-dasharray: 3, 3; fill: none;" marker-end="url(#arrowhead)" stroke="none" stroke-width="2" class="messageLine1" y2="2318" x2="79" y1="2318" x1="388"></line><g name="Client" class="actor-man actor-bottom"><line y2="2403" x2="75" y1="2383" x1="75" id="actor-man-torso34"></line><line y2="2391" x2="93" y1="2391" x1="57" id="actor-man-arms34"></line><line y2="2403" x2="75" y1="2418" x1="57"></line><line y2="2418" x2="91" y1="2403" x1="75"></line><circle height="65" width="150" r="15" cy="2368" cx="75"></circle><text style="text-anchor: middle; font-size: 16px; font-weight: 400;" class="actor actor-man" alignment-baseline="central" dominant-baseline="central" y="2425.5" x="75"><tspan dy="0" x="75">Client</tspan></text></g><text y="-25" x="452.25">ComfyUI API Interaction Flow</text></g></svg>